<?xml version="1.0" encoding="utf-8"?>
<!-- Svg Vector Icons : http://www.onlinewebfonts.com/icon -->
<!DOCTYPE svg PUBLIC "-//W3C//DTD SVG 1.1//EN" "http://www.w3.org/Graphics/SVG/1.1/DTD/svg11.dtd">
<svg version="1.1" xmlns="http://www.w3.org/2000/svg" xmlns:xlink="http://www.w3.org/1999/xlink" x="0px" y="0px" viewBox="0 0 256 256" enable-background="new 0 0 256 256" xml:space="preserve">
<metadata> Svg Vector Icons : http://www.onlinewebfonts.com/icon </metadata>
<g><g><path fill="#000000" d="M65,240.4h-4.5c-14.5,0-26.4-11.9-26.4-26.4v-67.6c0-14.5,11.9-26.4,26.4-26.4H65c14.5,0,26.4,11.9,26.4,26.4V214C91.4,228.5,79.5,240.4,65,240.4z"/><path fill="#000000" d="M195.4,240.3h-4.5c-14.5,0-26.4-11.9-26.4-26.4v-67.6c0-14.5,11.9-26.4,26.4-26.4h4.5c14.5,0,26.4,11.9,26.4,26.4v67.6C221.8,228.4,209.9,240.3,195.4,240.3z"/><path fill="#000000" d="M24.2,183.2v-46.4C24.2,80,68.8,31.7,125.6,30.5c59-1.3,106.2,46.5,106.2,105.2v47.5c0,3.9,3.2,7.1,7.1,7.1l0,0c3.9,0,7.1-3.2,7.1-7.1v-46.9c0-66.2-54.1-121.9-120.3-120.6C61.6,16.9,10,69.2,10,133.6v49.6c0,3.9,3.2,7.1,7.1,7.1l0,0C21,190.3,24.2,187.1,24.2,183.2z"/></g></g>
</svg>